<svg id="Layer_1" data-name="Layer 1" xmlns="http://www.w3.org/2000/svg" viewBox="0 0 1138.11 1769.26"><defs><style>.cls-1{fill:#088f8f;}.cls-2{fill:#fff;}</style></defs><path class="cls-1" d="M621,727.49H463.84c-22.79,0-43,20.27-43,43.12s20.26,40.53,43,40.53H621c289,0,433.48,141.93,433.48,430.89,0,273.82-142,443.57-423.31,443.57H268.7c-22.86,0-40.6,20.34-40.6,43.13,0,27.91,12.69,40.53,40.6,40.53H631.15c327,0,507-207.84,507-527.23C1138.11,910,953.07,727.49,621,727.49Z"/><path class="cls-1" d="M821.24,1013.93c-78-52.8-161-65.7-254-65.91H463.84c-29,0-41.56,13.77-40.46,44.17A40.79,40.79,0,0,0,464,1031.67H565.23c40.53,0,78.61,2.52,111.56,7.57,119.14,27.91,159.67,96.35,159.67,218,0,195.22-116.61,202.79-271.23,202.79h-256V1157a41.83,41.83,0,0,0-41.83-41.83h0A41.83,41.83,0,0,0,225.57,1157v343.62a43.05,43.05,0,0,0,43.06,43h296.6c202.79,0,354.88-40.53,354.88-286.44C920.11,1158.38,899.84,1077.32,821.24,1013.93Z"/><path class="cls-2" d="M309.23,299.13H524.7C656.53,299.13,763,334.61,763,486.7c0,38-5.12,68.44-17.74,93.75q-7.68,15.25,0,30.43c2.52,12.69,10.1,20.27,20.27,25.39,2.52,2.52,10.09,2.52,17.74,2.52,45.64,0,58.27-78.6,63.38-111.56V486.7c0-197.74-134.35-271.22-321.92-271.22H266.17c-27.9,0-40.6,12.69-40.6,40.53V769.32a41.82,41.82,0,0,0,41.83,41.82h0a41.82,41.82,0,0,0,41.83-41.82Z"/><path class="cls-2" d="M468.89,0H43.05C17.74,0,0,15.22,0,40.6V1726.2c0,22.79,20.26,43.06,43.05,43.06,27.91,0,40.6-15.15,40.6-43.06V83.65H468.89c43.61,0,87.27,1.16,130.74,4.8,40.32,3.37,80.56,8.86,119.94,18.24,35.9,8.55,71.19,20.4,104,37.34,31,16,59.7,36.65,83.71,62.08,25.29,26.8,44.93,58.45,58.93,92.48C983.06,339.46,992,383.24,996,427.13c1.77,19.22,3.3,38.53,2.55,57.84-.47,12.22-3.44,24.12-5.09,36.19-1.12,8.19-2.55,17.28.93,25.12,9.75,22,36.74,27.84,57.52,20,20-7.58,23.61-33.88,26.43-52.52a386.08,386.08,0,0,0,4-57.45C1082.37,91.3,793.4,0,468.89,0Z"/><circle class="cls-2" cx="987.88" cy="660.78" r="46.24"/><circle class="cls-1" cx="271.81" cy="994.25" r="46.24"/></svg>